<?xml version="1.0" standalone="no"?>
<!DOCTYPE svg PUBLIC "-//W3C//DTD SVG 20010904//EN"
 "http://www.w3.org/TR/2001/REC-SVG-20010904/DTD/svg10.dtd">
<svg version="1.0" xmlns="http://www.w3.org/2000/svg"
 width="294.000000pt" height="294.000000pt" viewBox="0 0 294.000000 294.000000"
 preserveAspectRatio="xMidYMid meet">
<metadata>
Created by potrace 1.14, written by Peter Selinger 2001-2017
</metadata>
<g transform="translate(0.000000,294.000000) scale(0.100000,-0.100000)"
fill="#000000" stroke="none">
<path d="M1987 2092 c-19 -18 -107 -20 -312 -6 -83 5 -106 4 -132 -10 -38 -19
-48 -33 -36 -49 5 -7 10 -25 12 -40 1 -16 9 -43 16 -60 l13 -32 167 -1 c93 0
170 -5 176 -11 6 -6 -4 -35 -29 -84 -81 -154 -122 -236 -122 -241 0 -4 -15
-39 -34 -80 -18 -40 -51 -111 -71 -158 -21 -47 -41 -89 -46 -95 -5 -5 -9 -15
-9 -23 0 -8 -22 -57 -48 -111 -41 -80 -48 -101 -41 -126 10 -37 43 -75 67 -76
20 -1 119 3 182 7 25 1 107 3 183 3 l137 1 11 28 c14 35 19 57 26 107 8 64 -5
70 -173 70 -78 0 -145 3 -148 6 -6 6 22 93 47 144 8 17 43 98 78 180 35 83
110 242 166 354 75 148 103 214 103 240 0 41 -9 58 -30 58 -34 2 -122 13 -129
17 -4 3 -15 -2 -24 -12z"/>
<path d="M980 2086 c0 -7 -10 -24 -22 -38 -13 -13 -57 -76 -98 -139 -41 -62
-78 -115 -82 -117 -5 -2 -8 -9 -8 -15 0 -7 -15 -35 -33 -62 -54 -82 -116 -198
-121 -232 -5 -27 5 -48 77 -154 45 -67 109 -163 142 -213 143 -218 181 -255
221 -217 12 12 18 13 21 4 13 -36 57 9 128 127 38 65 112 183 212 338 47 73
52 87 49 125 -3 23 -5 45 -5 49 -1 4 -36 53 -78 110 -43 57 -102 139 -133 184
-101 148 -170 234 -200 249 -36 19 -70 19 -70 1z m77 -323 c19 -33 69 -102
133 -183 11 -14 30 -44 42 -66 l22 -42 -58 -93 c-114 -183 -138 -219 -147
-219 -4 0 -27 30 -49 68 -23 37 -72 111 -110 166 -78 111 -78 91 -1 213 25 40
63 99 84 132 21 34 44 61 51 61 7 0 22 -17 33 -37z"/>
</g>
</svg>
